# xmcd CD database file
#
# Track frame offsets:
#	150
#	15997
#	29712
#	44940
#	62165
#	75092
#	90495
#	104957
#	122835
#	135437
#	151797
#	170420
#	184417
#	200040
#	215822
#
# Disc length: 3024 seconds
#
# Revision: 0
# Processed by: cddbd v1.5.1PL2 Copyright (c) Steve Scherf et al.
# Submitted via: CDex 1.51
#
DISCID=d70bce0f
DTITLE=Sarah Jory - Love With Attitude
DYEAR=1995
DGENRE=Country
TTITLE0=Whatever Way The Wind Blows
TTITLE1=Some Kind Of Fool
TTITLE2=If I Had Any Pride Left At All
TTITLE3=Wise Beyond Her Tears
TTITLE4=Don't Walk In Here Like You Never Walked Out
TTITLE5=I Just Don't Love You
TTITLE6=Back Seat Driver
TTITLE7=The Story Behind Her Smile
TTITLE8=Love With Attitude
TTITLE9=You Can Say That Again And Again
TTITLE10=When Promises Made Are Promises Kept
TTITLE11=Now It's Time
TTITLE12=With All The Love
TTITLE13=Same Track Different Trains
TTITLE14=Last Date
EXTD=YEAR: 1995
EXTT0=
EXTT1=
EXTT2=
EXTT3=
EXTT4=
EXTT5=
EXTT6=
EXTT7=
EXTT8=
EXTT9=
EXTT10=
EXTT11=
EXTT12=
EXTT13=
EXTT14=
PLAYORDER=
